<?xml version="1.0" encoding="UTF-8" standalone="no"?>
<svg
   xmlns:dc="http://purl.org/dc/elements/1.1/"
   xmlns:cc="http://creativecommons.org/ns#"
   xmlns:rdf="http://www.w3.org/1999/02/22-rdf-syntax-ns#"
   xmlns:svg="http://www.w3.org/2000/svg"
   xmlns="http://www.w3.org/2000/svg"
   viewBox="0 0 1041.3333 484"
   height="484"
   width="1041.3333"
   xml:space="preserve"
   id="svg2"
   version="1.1"><metadata
     id="metadata8"><rdf:RDF><cc:Work
         rdf:about=""><dc:format>image/svg+xml</dc:format><dc:type
           rdf:resource="http://purl.org/dc/dcmitype/StillImage" /><dc:title></dc:title></cc:Work></rdf:RDF></metadata><defs
     id="defs6"><clipPath
       id="clipPath18"
       clipPathUnits="userSpaceOnUse"><path
         id="path16"
         d="M 0,363 H 781 V 0 H 0 Z" /></clipPath></defs><g
     transform="matrix(1.3333333,0,0,-1.3333333,0,484)"
     id="g10"><g
       id="g12"><g
         clip-path="url(#clipPath18)"
         id="g14"><g
           transform="translate(528,121)"
           id="g20"><path
             id="path22"
             style="fill:#ffffff;fill-opacity:1;fill-rule:evenodd;stroke:none"
             d="m 0,0 v 55 c 0,3.04 -1.01,6.01 -3,8 l -11,11 c -1.99,1.99 -4.96,3 -8,3 h -11 c -4.42,0.01 -7.73,2.25 -11,5 -3.27,2.75 -6.58,5.99 -11,6 h -11 c -4.42,0.01 -7.73,2.25 -11,5 -3.27,2.75 -6.58,5.99 -11,6 -4.42,0.01 -7.73,2.25 -11,5 -3.27,2.75 -6.58,5.99 -11,6 h 1 c -3.04,0 -6.01,1.01 -8,3 -1.99,1.99 -10.14,8 -12,8 h -1 c -3.04,0 -6,1.96 -6,5 0,3.04 2.96,6 6,6 h 97 c 3.04,0 6.01,-1.01 8,-3 l 11,-11 c 1.99,-1.99 3,-4.96 3,-8 0.01,-4.42 3.25,-7.73 6,-11 2.75,-3.27 9.85,-9.63 11,-11 2.75,-3.27 4.99,-6.58 5,-11 0.01,-4.42 3.25,-7.73 6,-11 2.75,-3.27 8.25,-7.73 11,-11 2.75,-3.27 4.99,-6.58 5,-11 0,-3.04 1.01,-6.01 3,-8 L 47,25 c 1.99,-1.99 4.96,-3 8,-3 h 77 c 6.08,0 11,-4.92 11,-11 V 0 c 0,-6.08 -4.92,-11 -11,-11 H 11 C 4.92,-11 0,-6.08 0,0 m -418,55 v 66 c 0,6.08 4.92,11 11,11 h 106 15 c 3.04,0 6.01,-1.01 8,-3 l 11,-11 c 1.99,-1.99 3,-4.96 3,-8 0.01,-4.42 3.25,-7.73 6,-11 2.75,-3.27 9.85,-9.63 11,-11 2.75,-3.27 4.99,-6.58 5,-11 0,-3.04 1.23,-5.79 3.22,-7.78 l 11,-11 c 1.99,-1.99 6.78,-6.18 6.78,-9.22 0,-3.04 -1.96,-5 -5,-5 h -181 c -6.08,0 -11,4.92 -11,11 m 560.43,55.01 c -2.83,0.12 -5.56,1.12 -7.43,2.99 -1.99,1.99 -10.14,8 -12,8 h -1 c -3.04,0 -6,1.96 -6,5 0,3.04 2.96,6 6,6 h 109 c 3.04,0 6.01,1.01 8,3 l 11,11 c 1.99,1.99 3,4.96 3,8 v 11 c 0,3.04 -1.01,6.01 -3,8 l -11,11 c -1.99,1.99 -4.96,3 -8,3 h -11 c -4.42,0.01 -7.73,2.25 -11,5 -3.27,2.75 -6.58,5.99 -11,6 h -11 c -4.42,0.01 -7.73,2.25 -11,5 -3.27,2.75 -6.58,5.99 -11,6 -4.42,0.01 -7.73,2.25 -11,5 -3.27,2.75 -6.58,5.99 -11,6 -4.42,0.01 -7.73,2.25 -11,5 -3.27,2.75 -6.58,5.99 -11,6 -4.42,0.01 -7.73,2.25 -11,5 -3.27,2.75 -6.58,5.99 -11,6 H 55 c -3.04,0 -6.01,-1.01 -8,-3 L 25,217 C 23.01,215.01 3.27,194.75 0,192 c -3.27,-2.75 -6.58,-4.99 -11,-5 h -22 c -4.42,0.01 -7.73,2.25 -11,5 -3.27,2.75 -6.58,5.99 -11,6 h -11 c -4.42,0.01 -7.73,2.25 -11,5 -3.27,2.75 -6.58,5.99 -11,6 -4.42,0.01 -7.73,2.25 -11,5 -3.27,2.75 -6.58,5.99 -11,6 -4.42,0.01 -7.73,2.25 -11,5 -3.27,2.75 -6.58,5.99 -11,6 -4.42,0.01 -7.73,2.25 -11,5 -3.27,2.75 -6.58,5.99 -11,6 h -44 c -3.04,0 -6.01,-1.01 -8,-3 l -22,-22 c -1.99,-1.99 -21.73,-22.25 -25,-25 -3.27,-2.75 -6.58,-4.99 -11,-5 h -22 c -4.42,0.01 -7.73,2.25 -11,5 -3.27,2.75 -6.58,5.99 -11,6 h -11 c -4.42,0.01 -7.73,2.25 -11,5 -3.27,2.75 -6.58,5.99 -11,6 -4.42,0.01 -7.73,2.25 -11,5 -3.27,2.75 -6.58,5.99 -11,6 -4.42,0.01 -7.73,2.25 -11,5 -3.27,2.75 -6.58,5.99 -11,6 -4.42,0.01 -7.73,2.25 -11,5 -3.27,2.75 -6.58,5.99 -11,6 h -44 c -3.04,0 -6.01,-1.01 -8,-3 l -11,-11 c -1.99,-1.99 -3,-4.96 -3,-8 v -11 c -0.01,-4.42 -2.25,-7.73 -5,-11 -2.75,-3.27 -5.99,-6.58 -6,-11 v -11 c -0.01,-4.42 -2.25,-7.73 -5,-11 -2.75,-3.27 -5.99,-6.58 -6,-11 -0.01,-4.42 -2.25,-7.73 -5,-11 -2.75,-3.27 -5.99,-6.58 -6,-11 -0.01,-4.42 -2.25,-7.73 -5,-11 -2.75,-3.27 -5.99,-6.58 -6,-11 -0.01,-4.42 -2.25,-7.73 -5,-11 -2.75,-3.27 -5.99,-6.58 -6,-11 V 77 66 55 44 33 c 0.01,-4.42 3.25,-7.73 6,-11 2.75,-3.27 4.99,-6.58 5,-11 0.01,-4.42 3.25,-7.73 6,-11 2.75,-3.27 4.99,-6.58 5,-11 0.01,-4.42 3.25,-7.73 6,-11 2.75,-3.27 4.99,-6.58 5,-11 0.01,-4.42 3.25,-7.73 6,-11 2.75,-3.27 4.99,-6.58 5,-11 v -11 c 0.01,-4.42 3.25,-7.73 6,-11 2.75,-3.27 4.99,-6.58 5,-11 v -11 c 0,-3.04 1.01,-6.01 3,-8 l 11,-11 c 1.99,-1.99 4.96,-3 8,-3 h 44 c 4.42,0.01 7.73,2.25 11,5 3.27,2.75 6.58,5.99 11,6 4.42,0.01 7.73,2.25 11,5 3.27,2.75 6.58,5.99 11,6 4.42,0.01 7.73,2.25 11,5 3.27,2.75 6.58,5.99 11,6 4.42,0.01 7.73,2.25 11,5 3.27,2.75 6.58,5.99 11,6 h 11 c 4.42,0.01 7.73,2.25 11,5 3.27,2.75 6.58,5.99 11,6 h 44 c 4.42,-0.01 7.73,-3.25 11,-6 3.27,-2.75 6.58,-4.99 11,-5 h 11 c 4.42,-0.01 7.73,-3.25 11,-6 3.27,-2.75 6.58,-4.99 11,-5 4.42,-0.01 7.73,-3.25 11,-6 3.27,-2.75 6.58,-4.99 11,-5 4.42,-0.01 7.73,-3.25 11,-6 3.27,-2.75 6.58,-4.99 11,-5 4.42,-0.01 7.73,-3.25 11,-6 3.27,-2.75 6.58,-4.99 11,-5 h 44 c 3.04,0 6.01,1.01 8,3 l 11,11 c 1.99,1.99 3,4.96 3,8 0.01,4.42 3.25,7.73 6,11 2.75,3.27 4.99,6.58 5,11 0,6.08 4.92,11 11,11 h 44 c 2.21,0 4.21,-0.84 6,-2 1.79,-1.16 3.36,-2.63 5,-4 1.64,-1.37 3.21,-3.09 5,-4 1.79,-0.91 3.79,-1 6,-1 h 11 c 4.42,-0.01 7.73,-3.25 11,-6 3.27,-2.75 6.58,-4.99 11,-5 4.42,-0.01 7.73,-3.25 11,-6 3.27,-2.75 6.58,-4.99 11,-5 4.42,-0.01 7.73,-3.25 11,-6 3.27,-2.75 6.58,-4.99 11,-5 4.42,-0.01 7.73,-3.25 11,-6 3.27,-2.75 6.58,-4.99 11,-5 h 44 c 3.04,0 6.01,1.01 8,3 l 11,11 c 1.99,1.99 3,4.96 3,8 0.01,4.42 3.25,7.73 6,11 2.75,3.27 4.99,6.58 5,11 0.01,4.42 3.25,7.73 6,11 2.75,3.27 4.99,6.58 5,11 0.01,4.42 3.25,7.73 6,11 2.75,3.27 4.99,6.58 5,11 0.01,4.42 3.25,7.73 6,11 2.75,3.27 4.99,6.58 5,11 0.01,4.42 3.25,7.73 6,11 2.75,3.27 4.99,6.58 5,11 v 44 c 0,3.04 -1.01,6.01 -3,8 l -11,11 c -1.99,1.99 -4.96,3 -8,3 h -11 c -4.42,0.01 -7.73,2.25 -11,5 -3.27,2.75 -6.58,5.99 -11,6 h -11 c -4.42,0.01 -7.73,2.25 -11,5 -3.27,2.75 -6.58,5.99 -11,6 -4.42,0.01 -7.73,2.25 -11,5 -3.27,2.75 -6.58,5.99 -11,6 h -0.98 z M 143,110 c -0.19,0.02 -0.38,0.02 -0.57,0.01 L 142.02,110 Z" /></g><g
           transform="translate(352,341)"
           id="g24"><path
             id="path26"
             style="fill:#53b2cc;fill-opacity:1;fill-rule:evenodd;stroke:none"
             d="m 0,0 v -66 h 154 v 11 h -33 v 11 H 88 v 11 H 66 v 11 H 44 v 11 H 22 V 0 Z" /></g><g
           transform="translate(275,286)"
           id="g28"><path
             id="path30"
             style="fill:#53b2cc;fill-opacity:1;fill-rule:evenodd;stroke:none"
             d="M 0,0 V -11 H 66 V 0 11 22 33 44 55 H 55 V 44 H 44 V 33 H 33 V 22 H 22 V 11 H 11 V 0 Z" /></g><g
           transform="translate(352,231)"
           id="g32"><path
             id="path34"
             style="fill:#53b2cc;fill-opacity:1;fill-rule:evenodd;stroke:none"
             d="m 0,0 v -66 h 154 v 11 h -33 v 11 H 88 v 11 H 66 v 11 H 44 v 11 H 22 V 0 Z" /></g><g
           transform="translate(429,22)"
           id="g36"><path
             id="path38"
             style="fill:#53b2cc;fill-opacity:1;fill-rule:evenodd;stroke:none"
             d="M 0,0 V 66 H -154 V 55 h 33 V 44 h 33 V 33 h 22 V 22 h 22 V 11 h 22 V 0 Z" /></g><g
           transform="translate(440,88)"
           id="g40"><path
             id="path42"
             style="fill:#53b2cc;fill-opacity:1;fill-rule:evenodd;stroke:none"
             d="m 0,0 v -22 -22 -22 h 11 v 22 h 11 v 22 H 33 V 0 Z" /></g><g
           transform="translate(275,264)"
           id="g44"><path
             id="path46"
             style="fill:#53b2cc;fill-opacity:1;fill-rule:evenodd;stroke:none"
             d="M 0,0 V -11 H 11 V -33 H 22 V -44 H 33 V -66 H 44 V -77 H 55 V -99 H 66 V 0 Z" /></g><g
           transform="translate(605,341)"
           id="g48"><path
             id="path50"
             style="fill:#a9d9e5;fill-opacity:1;fill-rule:evenodd;stroke:none"
             d="m 0,0 v -66 h 154 v 11 h -33 v 11 H 88 v 11 H 66 v 11 H 44 v 11 H 22 V 0 Z" /></g><g
           transform="translate(528,286)"
           id="g52"><path
             id="path54"
             style="fill:#a9d9e5;fill-opacity:1;fill-rule:evenodd;stroke:none"
             d="M 0,0 V -11 H 66 V 0 11 22 33 44 55 H 55 V 44 H 44 V 33 H 33 V 22 H 22 V 11 H 11 V 0 Z" /></g><g
           transform="translate(605,231)"
           id="g56"><path
             id="path58"
             style="fill:#a9d9e5;fill-opacity:1;fill-rule:evenodd;stroke:none"
             d="m 0,0 v -66 h 154 v 11 h -33 v 11 H 88 v 11 H 66 v 11 H 44 v 11 H 22 V 0 Z" /></g><g
           transform="translate(682,22)"
           id="g60"><path
             id="path62"
             style="fill:#a9d9e5;fill-opacity:1;fill-rule:evenodd;stroke:none"
             d="M 0,0 V 66 H -165 V 55 h 44 V 44 h 33 V 33 h 22 V 22 h 22 V 11 h 22 V 0 Z" /></g><g
           transform="translate(759,132)"
           id="g64"><path
             id="path66"
             style="fill:#a9d9e5;fill-opacity:1;fill-rule:evenodd;stroke:none"
             d="M 0,0 V 22 H -66 V 0 -22 -44 -66 -88 -110 h 11 v 22 h 11 v 22 h 11 v 22 h 11 v 22 h 11 V 0 Z" /></g><g
           transform="translate(528,264)"
           id="g68"><path
             id="path70"
             style="fill:#a9d9e5;fill-opacity:1;fill-rule:evenodd;stroke:none"
             d="M 0,0 V -11 H 11 V -33 H 22 V -44 H 33 V -66 H 44 V -77 H 55 V -99 H 66 V 0 Z" /></g><g
           transform="translate(22,187)"
           id="g72"><path
             id="path74"
             style="fill:#289ebf;fill-opacity:1;fill-rule:evenodd;stroke:none"
             d="M 0,0 H 66 V 154 H 55 V 121 H 44 V 88 H 33 V 66 H 22 V 44 H 11 V 22 H 0 Z" /></g><g
           transform="translate(99,341)"
           id="g76"><path
             id="path78"
             style="fill:#289ebf;fill-opacity:1;fill-rule:evenodd;stroke:none"
             d="m 0,0 v -66 h 154 v 11 h -33 v 11 H 88 v 11 H 66 v 11 H 44 v 11 H 22 V 0 Z" /></g><g
           transform="translate(22,176)"
           id="g80"><path
             id="path82"
             style="fill:#289ebf;fill-opacity:1;fill-rule:evenodd;stroke:none"
             d="M 0,0 H 66 V -154 H 55 v 33 H 44 v 33 H 33 v 22 H 22 v 22 H 11 v 22 H 0 Z" /></g><g
           transform="translate(99,22)"
           id="g84"><path
             id="path86"
             style="fill:#289ebf;fill-opacity:1;fill-rule:evenodd;stroke:none"
             d="M 0,0 V 66 H 154 V 55 H 121 V 44 H 88 V 33 H 66 V 22 H 44 V 11 H 22 V 0 Z" /></g><g
           transform="translate(114,121)"
           id="g88"><path
             id="path90"
             style="fill:#289ebf;fill-opacity:1;fill-rule:evenodd;stroke:none"
             d="m 0,0 v -2 h -2 v -2 h -2 v -2 -2 -2 h 2 v -2 h 2 v -2 h 2 2 2 2 v 2 h 2 v 2 H 8 6 v -2 H 4 2 v 2 H 0 v 2 2 2 h 2 v 2 h 2 2 v -2 h 2 2 v 2 H 8 V 0 H 6 4 2 Z" /></g><g
           transform="translate(130,119)"
           id="g92"><path
             id="path94"
             style="fill:#289ebf;fill-opacity:1;fill-rule:evenodd;stroke:none"
             d="m 0,0 h 2 2 2 v -2 -2 -2 -2 -2 H 4 2 0 v 2 2 2 2 z M -2,2 V 0 h -2 v -2 -2 -2 -2 -2 h 2 v -2 h 2 2 2 2 2 v 2 h 2 v 2 2 2 2 2 H 8 V 2 H 6 4 2 0 Z" /></g><g
           transform="translate(142,121)"
           id="g96"><path
             id="path98"
             style="fill:#289ebf;fill-opacity:1;fill-rule:evenodd;stroke:none"
             d="m 0,0 v -2 -2 -2 -2 -2 -2 -2 h 2 2 v 2 2 2 h 2 v -2 h 2 v 2 h 2 v -2 -2 -2 h 2 2 v 2 2 2 2 2 2 2 H 12 10 V -2 H 8 V -4 H 6 v 2 H 4 V 0 H 2 Z" /></g><g
           transform="translate(162,119)"
           id="g100"><path
             id="path102"
             style="fill:#289ebf;fill-opacity:1;fill-rule:evenodd;stroke:none"
             d="M 0,0 H 2 4 6 V -2 -4 -6 H 4 2 0 v 2 2 z m -4,2 v -2 -2 -2 -2 -2 -2 -2 h 2 2 v 2 2 h 2 2 2 2 v 2 h 2 v 2 2 2 H 8 V 2 H 6 4 2 0 -2 Z" /></g><g
           transform="translate(174,121)"
           id="g104"><path
             id="path106"
             style="fill:#289ebf;fill-opacity:1;fill-rule:evenodd;stroke:none"
             d="m 0,0 v -2 -2 -2 -2 -2 -2 h 2 v -2 h 2 2 2 2 2 v 2 h 2 v 2 2 2 2 2 2 h -2 -2 v -2 -2 -2 -2 -2 -2 H 8 6 4 v 2 2 2 2 2 2 H 2 Z" /></g><g
           transform="translate(191,121)"
           id="g108"><path
             id="path110"
             style="fill:#289ebf;fill-opacity:1;fill-rule:evenodd;stroke:none"
             d="m 0,0 v -2 h 2 2 v -2 -2 -2 -2 -2 -2 h 2 2 v 2 2 2 2 2 2 h 2 2 V 0 H 10 8 6 4 2 Z" /></g><g
           transform="translate(206,121)"
           id="g112"><path
             id="path114"
             style="fill:#289ebf;fill-opacity:1;fill-rule:evenodd;stroke:none"
             d="m 0,0 v -2 -2 -2 -2 -2 -2 -2 h 2 2 2 2 2 2 2 v 2 H 12 10 8 6 4 v 2 2 h 2 2 2 2 v 2 H 10 8 6 4 v 2 2 h 2 2 2 2 2 V 0 H 12 10 8 6 4 2 Z" /></g><g
           transform="translate(226,119)"
           id="g116"><path
             id="path118"
             style="fill:#289ebf;fill-opacity:1;fill-rule:evenodd;stroke:none"
             d="M 0,0 H 2 4 6 V -2 -4 H 4 V -6 H 2 0 v 2 2 z m -4,2 v -2 -2 -2 -2 -2 -2 -2 h 2 2 v 2 2 h 2 v -2 h 2 v -2 h 2 2 2 v 2 H 8 v 2 H 6 v 2 h 2 2 v 2 2 2 H 8 V 2 H 6 4 2 0 -2 Z" /></g><g
           transform="translate(256,121)"
           id="g120"><path
             id="path122"
             style="fill:#53b2cc;fill-opacity:1;fill-rule:evenodd;stroke:none"
             d="m 0,0 v -2 h -2 v -2 -2 h 2 v -2 h 2 2 2 2 v -2 -2 H 6 4 2 v 2 H 0 -2 v -2 h 2 v -2 h 2 2 2 2 2 v 2 h 2 v 2 2 h -2 v 2 H 8 6 4 2 v 2 2 h 2 2 v -2 h 2 2 v 2 H 8 V 0 H 6 4 2 Z" /></g><g
           transform="translate(274,121)"
           id="g124"><path
             id="path126"
             style="fill:#53b2cc;fill-opacity:1;fill-rule:evenodd;stroke:none"
             d="m 0,0 v -2 h -2 v -2 h -2 v -2 -2 -2 h 2 v -2 h 2 v -2 h 2 2 2 2 v 2 h 2 v 2 H 8 6 v -2 H 4 2 v 2 H 0 v 2 2 2 h 2 v 2 h 2 2 v -2 h 2 2 v 2 H 8 V 0 H 6 4 2 Z" /></g><g
           transform="translate(287,121)"
           id="g128"><path
             id="path130"
             style="fill:#53b2cc;fill-opacity:1;fill-rule:evenodd;stroke:none"
             d="m 0,0 v -2 h 2 2 v -2 -2 -2 -2 -2 H 2 0 v -2 h 2 2 2 2 2 2 v 2 H 10 8 v 2 2 2 2 2 h 2 2 V 0 H 10 8 6 4 2 Z" /></g><g
           transform="translate(302,121)"
           id="g132"><path
             id="path134"
             style="fill:#53b2cc;fill-opacity:1;fill-rule:evenodd;stroke:none"
             d="m 0,0 v -2 -2 -2 -2 -2 -2 -2 h 2 2 2 2 2 2 2 v 2 H 12 10 8 6 4 v 2 2 h 2 2 2 2 v 2 H 10 8 6 4 v 2 2 h 2 2 2 2 2 V 0 H 12 10 8 6 4 2 Z" /></g><g
           transform="translate(318,121)"
           id="g136"><path
             id="path138"
             style="fill:#53b2cc;fill-opacity:1;fill-rule:evenodd;stroke:none"
             d="m 0,0 v -2 -2 -2 -2 -2 -2 -2 h 2 2 v 2 2 2 h 2 v -2 h 2 v -2 h 2 v -2 h 2 2 v 2 2 2 2 2 2 2 H 12 10 V -2 -4 -6 H 8 v 2 H 6 v 2 H 4 V 0 H 2 Z" /></g><g
           transform="translate(338,121)"
           id="g140"><path
             id="path142"
             style="fill:#53b2cc;fill-opacity:1;fill-rule:evenodd;stroke:none"
             d="m 0,0 v -2 h -2 v -2 h -2 v -2 -2 -2 h 2 v -2 h 2 v -2 h 2 2 2 2 v 2 h 2 v 2 H 8 6 v -2 H 4 2 v 2 H 0 v 2 2 2 h 2 v 2 h 2 2 v -2 h 2 2 v 2 H 8 V 0 H 6 4 2 Z" /></g><g
           transform="translate(350,121)"
           id="g144"><path
             id="path146"
             style="fill:#53b2cc;fill-opacity:1;fill-rule:evenodd;stroke:none"
             d="m 0,0 v -2 -2 -2 -2 -2 -2 -2 h 2 2 2 2 2 2 2 v 2 H 12 10 8 6 4 v 2 2 h 2 2 2 2 v 2 H 10 8 6 4 v 2 2 h 2 2 2 2 2 V 0 H 12 10 8 6 4 2 Z" /></g><g
           transform="translate(475,121)"
           id="g148"><path
             id="path150"
             style="fill:#a9d9e5;fill-opacity:1;fill-rule:evenodd;stroke:none"
             d="m 0,0 v -2 -2 -2 h 2 v -2 h 2 v -2 -2 -2 h 2 2 v 2 2 2 h 2 v 2 h 2 v 2 2 2 H 10 8 V -2 -4 -6 H 6 4 v 2 2 2 H 2 Z" /></g><g
           transform="translate(384,121)"
           id="g152"><path
             id="path154"
             style="fill:#a9d9e5;fill-opacity:1;fill-rule:evenodd;stroke:none"
             d="m 0,0 v -2 h -2 v -2 -2 h 2 v -2 h 2 2 2 2 v -2 -2 H 6 4 2 v 2 H 0 -2 v -2 h 2 v -2 h 2 2 2 2 2 v 2 h 2 v 2 2 h -2 v 2 H 8 6 4 2 v 2 2 h 2 2 v -2 h 2 2 v 2 H 8 V 0 H 6 4 2 Z" /></g><g
           transform="translate(418,121)"
           id="g156"><path
             id="path158"
             style="fill:#a9d9e5;fill-opacity:1;fill-rule:evenodd;stroke:none"
             d="m 0,0 v -2 h -2 v -2 h -2 v -2 -2 -2 h 2 v -2 h 2 v -2 h 2 2 2 2 v 2 h 2 v 2 H 8 6 v -2 H 4 2 v 2 H 0 v 2 2 2 h 2 v 2 h 2 2 v -2 h 2 2 v 2 H 8 V 0 H 6 4 2 Z" /></g><g
           transform="translate(402,119)"
           id="g160"><path
             id="path162"
             style="fill:#a9d9e5;fill-opacity:1;fill-rule:evenodd;stroke:none"
             d="m 0,0 h 2 2 2 v -2 -2 -2 -2 -2 H 4 2 0 v 2 2 2 2 z M -2,2 V 0 h -2 v -2 -2 -2 -2 -2 h 2 v -2 h 2 2 2 2 2 v 2 h 2 v 2 2 2 2 2 H 8 V 2 H 6 4 2 0 Z" /></g><g
           transform="translate(431,121)"
           id="g164"><path
             id="path166"
             style="fill:#a9d9e5;fill-opacity:1;fill-rule:evenodd;stroke:none"
             d="m 0,0 v -2 h 2 2 v -2 -2 -2 -2 -2 H 2 0 v -2 h 2 2 2 2 2 2 v 2 H 10 8 v 2 2 2 2 2 h 2 2 V 0 H 10 8 6 4 2 Z" /></g><g
           transform="translate(445,121)"
           id="g168"><path
             id="path170"
             style="fill:#a9d9e5;fill-opacity:1;fill-rule:evenodd;stroke:none"
             d="m 0,0 v -2 -2 -2 -2 -2 -2 -2 h 2 2 2 2 2 2 2 v 2 H 12 10 8 6 4 v 2 2 h 2 2 2 2 v 2 H 10 8 6 4 v 2 2 h 2 2 2 2 2 V 0 H 12 10 8 6 4 2 Z" /></g><g
           transform="translate(461,121)"
           id="g172"><path
             id="path174"
             style="fill:#a9d9e5;fill-opacity:1;fill-rule:evenodd;stroke:none"
             d="m 0,0 v -2 h 2 2 v -2 -2 -2 -2 -2 -2 h 2 2 v 2 2 2 2 2 2 h 2 2 V 0 H 10 8 6 4 2 Z" /></g><g
           transform="translate(110,146)"
           id="g176"><path
             id="path178"
             style="fill:#222222;fill-opacity:1;fill-rule:evenodd;stroke:none"
             d="m 0,0 v -2 -2 -2 -2 -2 -2 -2 h 2 2 2 2 2 2 2 v 2 H 12 10 8 6 4 v 2 2 2 2 2 2 H 2 Z" /></g><g
           transform="translate(132,144)"
           id="g180"><path
             id="path182"
             style="fill:#222222;fill-opacity:1;fill-rule:evenodd;stroke:none"
             d="M 0,0 H 2 V -2 H 4 V -4 -6 H 2 0 -2 v 2 2 H 0 Z M -2,2 V 0 h -2 v -2 h -2 v -2 -2 -2 -2 -2 h 2 2 v 2 2 h 2 2 2 v -2 -2 h 2 2 v 2 2 2 2 2 H 6 V 0 H 4 V 2 H 2 0 Z" /></g><g
           transform="translate(142,146)"
           id="g184"><path
             id="path186"
             style="fill:#222222;fill-opacity:1;fill-rule:evenodd;stroke:none"
             d="m 0,0 v -2 -2 -2 -2 -2 -2 -2 h 2 2 v 2 2 2 h 2 v -2 h 2 v -2 h 2 v -2 h 2 2 v 2 2 2 2 2 2 2 H 12 10 V -2 -4 -6 H 8 v 2 H 6 v 2 H 4 V 0 H 2 Z" /></g><g
           transform="translate(162,146)"
           id="g188"><path
             id="path190"
             style="fill:#222222;fill-opacity:1;fill-rule:evenodd;stroke:none"
             d="m 0,0 v -2 h -2 v -2 h -2 v -2 -2 -2 h 2 v -2 h 2 v -2 h 2 2 2 2 v 2 h 2 v 2 H 8 6 v -2 H 4 2 v 2 H 0 v 2 2 2 h 2 v 2 h 2 2 v -2 h 2 2 v 2 H 8 V 0 H 6 4 2 Z" /></g><g
           transform="translate(180,144)"
           id="g192"><path
             id="path194"
             style="fill:#222222;fill-opacity:1;fill-rule:evenodd;stroke:none"
             d="M 0,0 H 2 V -2 H 4 V -4 -6 H 2 0 -2 v 2 2 H 0 Z M -2,2 V 0 h -2 v -2 h -2 v -2 -2 -2 -2 -2 h 2 2 v 2 2 h 2 2 2 v -2 -2 h 2 2 v 2 2 2 2 2 H 6 V 0 H 4 V 2 H 2 0 Z" /></g><g
           transform="translate(192,146)"
           id="g196"><path
             id="path198"
             style="fill:#222222;fill-opacity:1;fill-rule:evenodd;stroke:none"
             d="m 0,0 v -2 h -2 v -2 -2 h 2 v -2 h 2 2 2 2 v -2 -2 H 6 4 2 v 2 H 0 -2 v -2 h 2 v -2 h 2 2 2 2 2 v 2 h 2 v 2 2 h -2 v 2 H 8 6 4 2 v 2 2 h 2 2 v -2 h 2 2 v 2 H 8 V 0 H 6 4 2 Z" /></g><g
           transform="translate(206,146)"
           id="g200"><path
             id="path202"
             style="fill:#222222;fill-opacity:1;fill-rule:evenodd;stroke:none"
             d="m 0,0 v -2 h 2 2 v -2 -2 -2 -2 -2 -2 h 2 2 v 2 2 2 2 2 2 h 2 2 V 0 H 10 8 6 4 2 Z" /></g><g
           transform="translate(240,144)"
           id="g204"><path
             id="path206"
             style="fill:#222222;fill-opacity:1;fill-rule:evenodd;stroke:none"
             d="M 0,0 H 2 4 6 V -2 -4 H 4 V -6 H 2 0 v 2 2 z m -4,2 v -2 -2 -2 -2 -2 -2 -2 h 2 2 v 2 2 h 2 v -2 h 2 v -2 h 2 2 2 v 2 H 8 v 2 H 6 v 2 h 2 2 v 2 2 2 H 8 V 2 H 6 4 2 0 -2 Z" /></g><g
           transform="translate(220,146)"
           id="g208"><path
             id="path210"
             style="fill:#222222;fill-opacity:1;fill-rule:evenodd;stroke:none"
             d="m 0,0 v -2 -2 -2 -2 -2 -2 -2 h 2 2 2 2 2 2 2 v 2 H 12 10 8 6 4 v 2 2 h 2 2 2 2 v 2 H 10 8 6 4 v 2 2 h 2 2 2 2 2 V 0 H 12 10 8 6 4 2 Z" /></g><g
           transform="translate(314,146)"
           id="g212"><path
             id="path214"
             style="fill:#222222;fill-opacity:1;fill-rule:evenodd;stroke:none"
             d="m 0,0 v -2 -2 -2 -2 h 2 v -2 h 2 v -2 h 2 v -2 h 2 v 2 h 2 v 2 h 2 v 2 h 2 v 2 2 2 2 H 12 10 V -2 -4 -6 H 8 V -8 H 6 v 2 H 4 v 2 2 2 H 2 Z" /></g><g
           transform="translate(268,146)"
           id="g216"><path
             id="path218"
             style="fill:#222222;fill-opacity:1;fill-rule:evenodd;stroke:none"
             d="m 0,0 v -2 -2 -2 -2 -2 -2 h 2 v -2 h 2 2 2 2 2 v 2 h 2 v 2 2 2 2 2 2 h -2 -2 v -2 -2 -2 -2 -2 -2 H 8 6 4 v 2 2 2 2 2 2 H 2 Z" /></g><g
           transform="translate(300,146)"
           id="g220"><path
             id="path222"
             style="fill:#222222;fill-opacity:1;fill-rule:evenodd;stroke:none"
             d="m 0,0 v -2 h 2 2 v -2 -2 -2 -2 -2 H 2 0 v -2 h 2 2 2 2 2 2 v 2 H 10 8 v 2 2 2 2 2 h 2 2 V 0 H 10 8 6 4 2 Z" /></g><g
           transform="translate(284,146)"
           id="g224"><path
             id="path226"
             style="fill:#222222;fill-opacity:1;fill-rule:evenodd;stroke:none"
             d="m 0,0 v -2 -2 -2 -2 -2 -2 -2 h 2 2 v 2 2 2 h 2 v -2 h 2 v -2 h 2 v -2 h 2 2 v 2 2 2 2 2 2 2 H 12 10 V -2 -4 -6 H 8 v 2 H 6 v 2 H 4 V 0 H 2 Z" /></g><g
           transform="translate(330,146)"
           id="g228"><path
             id="path230"
             style="fill:#222222;fill-opacity:1;fill-rule:evenodd;stroke:none"
             d="m 0,0 v -2 -2 -2 -2 -2 -2 -2 h 2 2 2 2 2 2 2 v 2 H 12 10 8 6 4 v 2 2 h 2 2 2 2 v 2 H 10 8 6 4 v 2 2 h 2 2 2 2 2 V 0 H 12 10 8 6 4 2 Z" /></g><g
           transform="translate(350,144)"
           id="g232"><path
             id="path234"
             style="fill:#222222;fill-opacity:1;fill-rule:evenodd;stroke:none"
             d="M 0,0 H 2 4 6 V -2 -4 H 4 V -6 H 2 0 v 2 2 z m -4,2 v -2 -2 -2 -2 -2 -2 -2 h 2 2 v 2 2 h 2 v -2 h 2 v -2 h 2 2 2 v 2 H 8 v 2 H 6 v 2 h 2 2 v 2 2 2 H 8 V 2 H 6 4 2 0 -2 Z" /></g><g
           transform="translate(364,146)"
           id="g236"><path
             id="path238"
             style="fill:#222222;fill-opacity:1;fill-rule:evenodd;stroke:none"
             d="m 0,0 v -2 h -2 v -2 -2 h 2 v -2 h 2 2 2 2 v -2 -2 H 6 4 2 v 2 H 0 -2 v -2 h 2 v -2 h 2 2 2 2 2 v 2 h 2 v 2 2 h -2 v 2 H 8 6 4 2 v 2 2 h 2 2 v -2 h 2 2 v 2 H 8 V 0 H 6 4 2 Z" /></g><g
           transform="translate(378,146)"
           id="g240"><path
             id="path242"
             style="fill:#222222;fill-opacity:1;fill-rule:evenodd;stroke:none"
             d="m 0,0 v -2 h 2 2 v -2 -2 -2 -2 -2 H 2 0 v -2 h 2 2 2 2 2 2 v 2 H 10 8 v 2 2 2 2 2 h 2 2 V 0 H 10 8 6 4 2 Z" /></g><g
           transform="translate(406,146)"
           id="g244"><path
             id="path246"
             style="fill:#222222;fill-opacity:1;fill-rule:evenodd;stroke:none"
             d="m 0,0 v -2 -2 -2 h 2 v -2 h 2 v -2 -2 -2 h 2 2 v 2 2 2 h 2 v 2 h 2 v 2 2 2 H 10 8 V -2 -4 -6 H 6 4 v 2 2 2 H 2 Z" /></g><g
           transform="translate(392,146)"
           id="g248"><path
             id="path250"
             style="fill:#222222;fill-opacity:1;fill-rule:evenodd;stroke:none"
             d="m 0,0 v -2 h 2 2 v -2 -2 -2 -2 -2 -2 h 2 2 v 2 2 2 2 2 2 h 2 2 V 0 H 10 8 6 4 2 Z" /></g></g></g></g></svg>